<svg version="1.1" id="Layer_1" xmlns="http://www.w3.org/2000/svg" xmlns:xlink="http://www.w3.org/1999/xlink" x="0px" y="0px"
	 width="100%" viewBox="0 0 474 481" enable-background="new 0 0 474 481" xml:space="preserve">
<path fill="#000000" opacity="1.000000" stroke="none" 
	d="
M255.000000,482.000000 
	C170.000000,482.000000 85.500000,482.000000 1.000000,482.000000 
	C1.000000,321.666656 1.000000,161.333328 1.000000,1.000000 
	C159.000000,1.000000 317.000000,1.000000 475.000000,1.000000 
	C475.000000,161.333328 475.000000,321.666656 475.000000,482.000000 
	C401.833344,482.000000 328.666656,482.000000 255.000000,482.000000 
M116.004051,238.615494 
	C115.997719,239.041000 115.991379,239.466507 115.340034,240.296509 
	C112.961517,247.199966 110.582993,254.103409 108.038712,261.759369 
	C106.758484,265.175323 105.478264,268.591278 104.049637,272.778137 
	C101.668839,279.835602 99.288040,286.893066 96.267204,294.335052 
	C95.500244,296.640045 94.739609,298.947205 93.965218,301.249695 
	C90.296806,312.156952 86.624649,323.062927 82.310333,334.320831 
	C73.320686,359.640137 64.116714,384.886597 55.467003,410.321503 
	C52.736076,418.351898 57.968048,428.977814 67.219406,430.784363 
	C86.494370,430.857697 105.769341,430.944519 125.044312,430.944489 
	C125.674606,430.944489 126.304901,430.059998 127.089149,428.889496 
	C128.410507,424.962830 129.731873,421.036194 131.049393,417.075012 
	C131.049393,417.075012 131.077209,417.068359 131.563141,416.898651 
	C131.392822,416.563202 131.222504,416.227753 131.291733,415.221741 
	C133.469421,409.146759 135.647110,403.071777 138.141998,396.354889 
	C138.949066,395.516602 140.137360,394.818115 140.503983,393.818329 
	C144.019028,384.232727 147.395340,374.596252 150.983826,364.519958 
	C150.983826,364.519958 151.075150,364.042358 151.683304,363.738617 
	C152.076584,362.497803 152.469879,361.257019 153.032120,359.539978 
	C153.061798,359.374146 153.091461,359.208344 153.669540,358.773376 
	C153.720169,358.186798 153.770798,357.600220 153.988113,356.264740 
	C155.264069,352.843109 156.540009,349.421478 157.976013,345.270233 
	C160.097000,340.549866 162.244507,335.849121 167.929611,332.985718 
	C179.620453,332.948547 191.311279,332.911407 203.929901,333.014496 
	C236.942902,332.969025 269.955902,332.923553 303.401337,333.023132 
	C303.401337,333.023132 303.847931,333.115967 304.133240,333.769043 
	C305.062225,333.874207 305.991180,333.979340 307.173370,334.666748 
	C308.405304,335.796906 309.637268,336.927063 310.956299,338.786011 
	C312.626221,342.882751 314.397919,346.941406 315.948029,351.083008 
	C322.039703,367.358887 328.061554,383.660950 334.144562,400.718445 
	C337.801575,410.148315 341.458557,419.578156 344.967773,429.891052 
	C346.055664,430.270447 347.142151,430.975952 348.231659,430.980621 
	C366.189026,431.057526 384.146851,431.061615 402.104370,431.013733 
	C403.105377,431.011017 404.104797,430.415100 405.843903,429.993073 
	C412.519196,428.087677 417.544525,422.331390 416.814667,415.734558 
	C416.187347,410.064178 414.339233,404.458160 412.488190,399.008026 
	C408.154907,386.249054 403.539856,373.584778 398.955566,360.912292 
	C394.977509,349.915649 390.884949,338.960449 386.999237,327.352966 
	C386.682404,326.868622 386.365540,326.384277 385.977417,325.441650 
	C385.977417,325.441650 385.833557,325.000702 385.990692,324.281067 
	C385.350891,322.831268 384.711090,321.381500 384.001221,319.998779 
	C384.001221,319.998779 384.072815,319.930115 384.009338,319.138733 
	C382.656952,315.043427 381.394653,310.915710 379.935547,306.858795 
	C375.271301,293.890503 370.534088,280.948425 365.979431,267.236206 
	C365.253876,265.293945 364.514832,263.356598 363.805084,261.408569 
	C360.477081,252.273911 357.157104,243.136322 353.966278,233.228256 
	C352.308838,228.550507 350.724121,223.845428 348.979553,219.200378 
	C344.704712,207.818253 340.356079,196.463837 336.550201,184.918228 
	C336.377930,184.583237 336.205627,184.248245 335.975311,183.447250 
	C335.975311,183.447250 335.835785,182.998840 335.990143,182.230286 
	C323.660736,147.236252 311.298950,112.253571 299.027069,77.239365 
	C296.300476,69.459846 293.693939,61.505112 286.271515,56.937553 
	C281.557861,54.036892 276.193390,52.193913 270.695435,49.104042 
	C248.430206,49.040260 226.164993,48.967987 203.899734,48.953716 
	C203.231934,48.953285 202.563736,49.560284 201.069122,50.003407 
	C197.367111,51.315483 193.665100,52.627556 189.255341,54.014717 
	C182.571167,58.082321 177.796036,63.806896 175.055191,71.085442 
	C172.580536,77.657036 170.450867,84.358536 168.009995,91.767662 
	C165.669434,98.454155 163.263885,105.118965 161.020828,111.838013 
	C160.144836,114.462006 159.634048,117.207924 158.286957,120.219742 
	C155.492508,128.136414 152.698044,136.053101 149.241241,144.322800 
	C147.219788,150.216171 145.198334,156.109543 143.014130,162.764206 
	C141.640015,166.827927 140.265900,170.891647 138.233093,175.338425 
	C137.788925,177.058258 137.385391,178.789841 136.892700,180.495667 
	C135.600220,184.970490 134.268829,189.434113 132.271851,194.237579 
	C129.483826,202.150528 126.695801,210.063477 123.255173,218.328125 
	C121.150024,224.520279 119.044884,230.712433 116.466866,237.101929 
	C116.369568,237.400543 116.272270,237.699142 116.004051,238.615494 
z"/>
<path fill="#AFAEFA" opacity="1.000000" stroke="none" 
	d="
M271.120758,49.876621 
	C276.193390,52.193913 281.557861,54.036892 286.271515,56.937553 
	C293.693939,61.505112 296.300476,69.459846 299.027069,77.239365 
	C311.298950,112.253571 323.660736,147.236252 335.595764,182.513657 
	C334.226135,181.898575 333.250916,181.000107 331.516846,179.402512 
	C331.033661,182.502777 330.067566,184.712814 330.520142,186.578751 
	C331.672913,191.331284 329.009369,191.476318 325.843536,191.562408 
	C324.941223,189.292374 324.148224,187.297318 323.355194,185.302261 
	C322.733490,185.289017 322.111755,185.275772 321.490051,185.262527 
	C320.610107,189.601974 319.360962,193.908875 318.974548,198.291824 
	C318.697296,201.436676 319.601807,204.642792 315.391846,205.803879 
	C311.838348,206.783936 308.383057,208.576736 304.791260,208.869980 
	C296.267456,209.565933 287.585632,207.906876 279.321167,211.836655 
	C274.924225,213.927414 274.420349,214.585358 277.200287,218.900421 
	C278.392975,220.751678 279.133392,222.894287 280.167786,225.092606 
	C277.962006,225.905167 276.423340,226.471970 274.551727,226.860596 
	C272.274139,221.065231 270.277374,215.465500 268.393921,209.827896 
	C259.916992,184.454666 251.545349,159.045883 242.944412,133.714874 
	C241.499100,129.458237 239.112137,125.521332 237.134308,121.382347 
	C231.099411,124.676048 229.714005,127.246140 227.504517,136.937195 
	C226.179581,136.015564 224.573654,135.315933 224.323685,134.286926 
	C223.261017,129.912430 222.446747,125.460320 221.864807,120.994446 
	C221.616684,119.090279 222.965881,116.640205 222.180984,115.212280 
	C220.409348,111.989258 221.518066,110.095703 223.616364,107.747360 
	C226.911194,104.059929 225.649323,101.360374 220.825821,99.920883 
	C218.975388,99.368645 217.344162,97.631989 215.938202,96.130569 
	C212.643250,92.611877 216.015594,89.741005 217.504837,86.181656 
	C212.493057,90.011948 210.078690,86.801758 207.099228,83.743309 
	C204.175034,80.741585 200.343826,78.641884 197.235794,75.791763 
	C195.996002,74.654854 195.273300,72.627129 194.981567,70.892822 
	C194.770447,69.637848 195.657806,68.198067 196.055298,66.840706 
	C194.115173,66.617760 192.134552,66.567039 190.246460,66.122902 
	C188.397125,65.687889 186.303955,65.217743 185.006973,64.017998 
	C184.465118,63.516781 185.458237,60.962296 186.190628,59.571621 
	C187.237701,57.583477 188.686081,55.806686 189.963104,53.939636 
	C193.665100,52.627556 197.367111,51.315483 201.954742,49.978416 
	C225.600479,49.927826 248.360626,49.902222 271.120758,49.876621 
M225.656250,115.204102 
	C225.418701,115.489105 225.181152,115.774101 224.943604,116.059105 
	C225.344070,116.203812 225.744553,116.348511 226.145020,116.493217 
	C226.131149,116.111176 226.117294,115.729141 225.656250,115.204102 
z"/>
<path fill="#BFA2FD" opacity="1.000000" stroke="none" 
	d="
M385.833557,325.000702 
	C385.833557,325.000702 385.977417,325.441650 386.030151,325.958893 
	C386.336243,326.979736 386.589600,327.483337 386.842957,327.986938 
	C390.884949,338.960449 394.977509,349.915649 398.955566,360.912292 
	C403.539856,373.584778 408.154907,386.249054 412.488190,399.008026 
	C414.339233,404.458160 416.187347,410.064178 416.814667,415.734558 
	C417.544525,422.331390 412.519196,428.087677 405.001282,430.016724 
	C386.576752,430.026581 368.994720,430.045807 351.413239,429.955627 
	C349.312469,429.944824 347.214722,429.338379 345.115570,429.008026 
	C341.458557,419.578156 337.801575,410.148315 334.339783,400.068939 
	C334.412109,398.302765 334.493591,397.114838 334.133240,396.080902 
	C331.743622,389.224792 329.269958,382.397827 326.802460,375.569031 
	C324.792084,370.005127 327.778839,364.461273 333.190765,364.965851 
	C332.355255,363.078094 331.687653,361.441162 330.918121,359.853638 
	C327.972809,353.777618 328.403290,353.114868 335.132996,353.495972 
	C339.507599,344.956085 339.507599,344.956085 345.409515,344.433868 
	C354.332275,343.644287 361.174133,336.499573 360.907684,327.598022 
	C360.760895,322.693695 362.198822,320.235046 367.369019,321.005890 
	C371.114563,321.564362 373.581207,320.227631 374.019531,316.300354 
	C374.287781,313.896820 374.046814,311.438110 374.283966,309.028717 
	C374.399689,307.852936 375.085815,306.733337 375.513733,305.588318 
	C376.341858,306.393646 377.583832,307.056915 377.918304,308.031616 
	C378.823486,310.669525 379.012360,313.587738 380.137634,316.102936 
	C380.831970,317.654907 382.720459,318.672577 384.072815,319.930115 
	C384.072815,319.930115 384.001221,319.998779 384.018250,320.349609 
	C384.634705,322.133850 385.234131,323.567261 385.833557,325.000702 
z"/>
<path fill="#B5A8FC" opacity="1.000000" stroke="none" 
	d="
M303.847931,333.115967 
	C303.847931,333.115967 303.401337,333.023132 302.846863,332.718933 
	C300.480896,332.275299 298.669678,332.019165 296.857788,332.014252 
	C277.553864,331.961945 258.249817,331.949493 238.892731,331.538330 
	C238.277115,326.801971 237.714584,322.453339 237.078094,317.532990 
	C241.337036,317.041412 240.230408,313.286255 239.740753,310.074738 
	C238.534698,302.164429 239.391724,294.510223 242.470947,287.000793 
	C250.601624,287.000916 258.288422,286.651978 265.912750,287.189575 
	C268.620422,287.380432 271.628357,289.257355 273.671417,291.224396 
	C275.634949,293.114807 284.802521,295.354858 287.004456,293.427368 
	C287.443634,293.042908 287.794250,292.305481 287.804749,291.723907 
	C287.874664,287.853729 287.840942,283.981720 287.840942,280.785706 
	C297.705200,279.388428 307.544312,277.994751 317.383392,276.601044 
	C317.423431,276.058044 317.463470,275.515076 317.503510,274.972076 
	C311.512817,272.655884 304.114960,275.451630 298.395386,271.425873 
	C301.229309,269.846527 303.459320,268.609802 305.683594,267.362793 
	C309.903473,264.997009 318.517181,265.656311 321.183838,268.405670 
	C322.114899,269.365601 323.429108,269.953888 324.568329,270.711914 
	C325.044495,269.403992 326.059235,268.030945 325.910278,266.798615 
	C324.866852,258.168365 327.106110,251.086929 334.618927,246.038406 
	C335.539764,245.419601 335.589020,243.628387 336.376221,242.648972 
	C337.079712,241.773712 338.275055,241.308380 339.199280,240.592361 
	C340.526703,239.563965 342.433472,238.720184 342.972076,237.355301 
	C344.054291,234.612793 344.263245,231.538910 345.067719,228.667679 
	C345.435333,227.355591 346.360321,226.199631 346.992432,225.045929 
	C349.591003,228.446625 351.712646,231.223190 353.834290,233.999771 
	C357.157104,243.136322 360.477081,252.273911 363.805084,261.408569 
	C364.514832,263.356598 365.253876,265.293945 365.560577,267.542175 
	C362.990570,267.034393 360.839417,266.220673 358.688263,265.406921 
	C358.440643,267.665100 358.052765,269.918915 357.982239,272.182617 
	C357.900909,274.791992 358.305145,277.516449 354.827759,278.542694 
	C354.499481,277.882141 354.160431,277.473206 354.095764,277.024689 
	C353.727356,274.469696 353.436127,271.726318 349.876434,272.138275 
	C346.427124,272.537506 345.863098,275.177307 346.016022,278.057098 
	C346.165009,280.862030 346.385162,283.665009 346.650452,286.461578 
	C347.136902,291.589264 341.455414,296.277588 336.637421,294.927704 
	C335.261230,294.542114 333.368011,294.723846 332.115784,295.396942 
	C326.932648,298.182861 326.126007,301.640076 328.773102,309.534210 
	C326.715302,310.027008 324.723145,310.791626 322.686035,310.940094 
	C315.434052,311.468597 311.051300,315.991730 310.998566,323.270996 
	C310.962830,328.199799 310.912811,333.128479 310.869202,338.057220 
	C309.637268,336.927063 308.405304,335.796906 306.820648,334.125336 
	C305.594604,333.427948 304.721252,333.271973 303.847931,333.115967 
z"/>
<path fill="#B2ACFB" opacity="1.000000" stroke="none" 
	d="
M353.900269,233.614014 
	C351.712646,231.223190 349.591003,228.446625 346.992432,225.045929 
	C346.360321,226.199631 345.435333,227.355591 345.067719,228.667679 
	C344.263245,231.538910 344.054291,234.612793 342.972076,237.355301 
	C342.433472,238.720184 340.526703,239.563965 339.199280,240.592361 
	C338.275055,241.308380 337.079712,241.773712 336.376221,242.648972 
	C335.589020,243.628387 335.539764,245.419601 334.618927,246.038406 
	C327.106110,251.086929 324.866852,258.168365 325.910278,266.798615 
	C326.059235,268.030945 325.044495,269.403992 324.568329,270.711914 
	C323.429108,269.953888 322.114899,269.365601 321.183838,268.405670 
	C318.517181,265.656311 309.903473,264.997009 305.683594,267.362793 
	C303.459320,268.609802 301.229309,269.846527 298.395386,271.425873 
	C304.114960,275.451630 311.512817,272.655884 317.503510,274.972076 
	C317.463470,275.515076 317.423431,276.058044 317.383392,276.601044 
	C307.544312,277.994751 297.705200,279.388428 287.840942,280.785706 
	C287.840942,283.981720 287.874664,287.853729 287.804749,291.723907 
	C287.794250,292.305481 287.443634,293.042908 287.004456,293.427368 
	C284.802521,295.354858 275.634949,293.114807 273.671417,291.224396 
	C271.628357,289.257355 268.620422,287.380432 265.912750,287.189575 
	C258.288422,286.651978 250.601624,287.000916 242.529968,286.636292 
	C242.645309,281.974457 246.779068,283.726257 249.420685,282.120361 
	C258.547211,282.038788 267.207642,282.061127 275.867767,282.018127 
	C286.468048,281.965515 290.714661,275.836456 287.385956,265.758179 
	C283.132599,252.880203 279.044189,239.947754 274.884705,227.038788 
	C276.423340,226.471970 277.962006,225.905167 280.167786,225.092606 
	C279.133392,222.894287 278.392975,220.751678 277.200287,218.900421 
	C274.420349,214.585358 274.924225,213.927414 279.321167,211.836655 
	C287.585632,207.906876 296.267456,209.565933 304.791260,208.869980 
	C308.383057,208.576736 311.838348,206.783936 315.391846,205.803879 
	C319.601807,204.642792 318.697296,201.436676 318.974548,198.291824 
	C319.360962,193.908875 320.610107,189.601974 321.490051,185.262527 
	C322.111755,185.275772 322.733490,185.289017 323.355194,185.302261 
	C324.148224,187.297318 324.941223,189.292374 325.843536,191.562408 
	C329.009369,191.476318 331.672913,191.331284 330.520142,186.578751 
	C330.067566,184.712814 331.033661,182.502777 331.516846,179.402512 
	C333.250916,181.000107 334.226135,181.898575 335.518555,182.897934 
	C335.835785,182.998840 335.975311,183.447250 335.995148,183.976532 
	C336.022400,184.703293 336.029785,184.900772 336.037170,185.098251 
	C340.356079,196.463837 344.704712,207.818253 348.979553,219.200378 
	C350.724121,223.845428 352.308838,228.550507 353.900269,233.614014 
M285.883270,225.326050 
	C284.670898,225.464340 283.458557,225.602631 281.485046,225.827759 
	C285.452606,229.337738 285.452606,229.337738 285.883270,225.326050 
z"/>
<path fill="#6C6CD9" opacity="1.000000" stroke="none" 
	d="
M131.053253,417.109528 
	C129.731873,421.036194 128.410507,424.962830 126.548645,429.291595 
	C106.287209,429.781097 86.566269,429.868469 66.845329,429.955872 
	C57.968048,428.977814 52.736076,418.351898 55.467003,410.321503 
	C64.116714,384.886597 73.320686,359.640137 82.998505,334.141113 
	C85.584816,333.099121 87.482948,332.236816 89.708832,331.225616 
	C90.624306,333.512421 91.473190,335.632935 92.349464,337.821838 
	C98.257530,334.550537 100.996056,335.823303 101.671440,341.119324 
	C102.370377,346.600098 103.716774,351.994965 104.590370,357.457703 
	C105.454582,362.861786 111.007088,368.024323 105.067841,373.761414 
	C108.263382,376.677032 109.547356,379.720184 107.432114,383.643463 
	C106.925888,384.582428 107.699028,386.162781 107.732903,387.452148 
	C107.789696,389.613312 107.739510,391.777893 107.705345,393.940613 
	C107.690369,394.888458 107.198631,396.106232 107.619667,396.735840 
	C109.520950,399.578827 108.011223,401.189850 106.056351,403.113312 
	C105.268532,403.888489 104.777199,406.205414 105.322197,406.894867 
	C109.063957,411.628510 108.606323,413.946442 103.106163,416.434387 
	C101.488045,417.166351 99.443214,417.753906 98.529839,419.061432 
	C97.088387,421.124908 96.437836,423.740845 95.171959,426.801178 
	C100.721733,428.861298 107.340271,429.054535 114.461929,428.995178 
	C117.409035,428.995911 119.908562,429.146515 122.374725,428.925201 
	C123.532822,428.821228 125.346779,428.251923 125.622147,427.461121 
	C126.686852,424.403870 127.251556,421.172455 128.243469,417.777283 
	C129.340698,417.402283 130.196976,417.255920 131.053253,417.109528 
z"/>
<path fill="#BAA7FC" opacity="1.000000" stroke="none" 
	d="
M310.912720,338.421631 
	C310.912811,333.128479 310.962830,328.199799 310.998566,323.270996 
	C311.051300,315.991730 315.434052,311.468597 322.686035,310.940094 
	C324.723145,310.791626 326.715302,310.027008 328.773102,309.534210 
	C326.126007,301.640076 326.932648,298.182861 332.115784,295.396942 
	C333.368011,294.723846 335.261230,294.542114 336.637421,294.927704 
	C341.455414,296.277588 347.136902,291.589264 346.650452,286.461578 
	C346.385162,283.665009 346.165009,280.862030 346.016022,278.057098 
	C345.863098,275.177307 346.427124,272.537506 349.876434,272.138275 
	C353.436127,271.726318 353.727356,274.469696 354.095764,277.024689 
	C354.160431,277.473206 354.499481,277.882141 354.827759,278.542694 
	C358.305145,277.516449 357.900909,274.791992 357.982239,272.182617 
	C358.052765,269.918915 358.440643,267.665100 358.688263,265.406921 
	C360.839417,266.220673 362.990570,267.034393 365.483398,267.922180 
	C370.534088,280.948425 375.271301,293.890503 379.935547,306.858795 
	C381.394653,310.915710 382.656952,315.043427 384.041077,319.534424 
	C382.720459,318.672577 380.831970,317.654907 380.137634,316.102936 
	C379.012360,313.587738 378.823486,310.669525 377.918304,308.031616 
	C377.583832,307.056915 376.341858,306.393646 375.513733,305.588318 
	C375.085815,306.733337 374.399689,307.852936 374.283966,309.028717 
	C374.046814,311.438110 374.287781,313.896820 374.019531,316.300354 
	C373.581207,320.227631 371.114563,321.564362 367.369019,321.005890 
	C362.198822,320.235046 360.760895,322.693695 360.907684,327.598022 
	C361.174133,336.499573 354.332275,343.644287 345.409515,344.433868 
	C339.507599,344.956085 339.507599,344.956085 335.132996,353.495972 
	C328.403290,353.114868 327.972809,353.777618 330.918121,359.853638 
	C331.687653,361.441162 332.355255,363.078094 333.190765,364.965851 
	C327.778839,364.461273 324.792084,370.005127 326.802460,375.569031 
	C329.269958,382.397827 331.743622,389.224792 334.133240,396.080902 
	C334.493591,397.114838 334.412109,398.302765 334.322174,399.686340 
	C328.061554,383.660950 322.039703,367.358887 315.948029,351.083008 
	C314.397919,346.941406 312.626221,342.882751 310.912720,338.421631 
M349.783325,334.030182 
	C350.161346,334.864044 350.539368,335.697876 350.917389,336.531738 
	C351.522797,335.912170 352.128235,335.292633 352.733673,334.673096 
	C351.910736,334.310455 351.087799,333.947845 349.783325,334.030182 
z"/>
<path fill="#ADA9F9" opacity="1.000000" stroke="none" 
	d="
M189.609222,53.977180 
	C188.686081,55.806686 187.237701,57.583477 186.190628,59.571621 
	C185.458237,60.962296 184.465118,63.516781 185.006973,64.017998 
	C186.303955,65.217743 188.397125,65.687889 190.246460,66.122902 
	C192.134552,66.567039 194.115173,66.617760 196.055298,66.840706 
	C195.657806,68.198067 194.770447,69.637848 194.981567,70.892822 
	C195.273300,72.627129 195.996002,74.654854 197.235794,75.791763 
	C200.343826,78.641884 204.175034,80.741585 207.099228,83.743309 
	C210.078690,86.801758 212.493057,90.011948 217.504837,86.181656 
	C216.015594,89.741005 212.643250,92.611877 215.938202,96.130569 
	C217.344162,97.631989 218.975388,99.368645 220.825821,99.920883 
	C225.649323,101.360374 226.911194,104.059929 223.616364,107.747360 
	C221.518066,110.095703 220.409348,111.989258 222.180984,115.212280 
	C222.965881,116.640205 221.616684,119.090279 221.864807,120.994446 
	C222.446747,125.460320 223.261017,129.912430 224.323685,134.286926 
	C224.573654,135.315933 226.179581,136.015564 227.453094,137.309052 
	C223.104050,151.167328 218.463593,164.583282 213.468674,177.974365 
	C210.906418,176.467285 208.651840,175.047791 206.522552,173.460281 
	C205.966171,173.045486 205.376526,172.002090 205.520447,171.427200 
	C206.726395,166.609619 206.770981,162.146194 202.734619,158.438019 
	C202.214447,157.960144 202.218552,156.892609 202.018402,156.088623 
	C201.084351,152.336487 200.352066,148.521027 199.180878,144.845047 
	C198.185913,141.722122 196.263077,138.856796 195.537613,135.696854 
	C194.828674,132.608841 194.056610,130.151245 190.879181,128.718719 
	C186.166397,126.593987 184.056091,122.176003 182.502563,117.626556 
	C181.738403,115.388756 181.806183,112.866882 181.503403,110.519585 
	C176.719299,110.729439 170.062424,105.131256 171.659393,102.382759 
	C174.806839,96.965775 171.074295,94.240761 168.169067,91.002747 
	C170.450867,84.358536 172.580536,77.657036 175.055191,71.085442 
	C177.796036,63.806896 182.571167,58.082321 189.609222,53.977180 
z"/>
<path fill="#928BEC" opacity="1.000000" stroke="none" 
	d="
M132.952942,193.902191 
	C134.268829,189.434113 135.600220,184.970490 136.892700,180.495667 
	C137.385391,178.789841 137.788925,177.058258 138.821716,175.425797 
	C140.483444,178.579956 140.652893,182.903732 142.813889,184.457321 
	C147.622208,187.914108 150.132721,192.405716 152.303253,197.527496 
	C153.974396,201.470871 156.142166,205.200867 157.993179,209.071625 
	C160.851089,215.047913 164.245346,220.861633 166.284988,227.112106 
	C168.981384,235.375183 170.792572,243.950089 172.609528,252.470856 
	C174.499756,261.335205 176.051208,270.277039 177.517715,279.223206 
	C177.960892,281.926575 177.394104,284.782623 177.692459,287.524963 
	C178.696136,296.750366 179.885696,305.955505 180.995087,315.169495 
	C181.665009,320.733429 182.318176,326.299438 182.516937,331.895325 
	C177.696106,331.926178 173.337173,331.926239 168.987091,331.539612 
	C168.534668,322.555267 168.868423,313.819000 167.400558,305.396759 
	C165.756790,295.965393 165.870209,286.099731 161.624924,277.170441 
	C161.235321,276.350922 161.560516,275.220642 161.383209,274.266357 
	C160.427841,269.124390 159.990555,263.796295 158.310852,258.897125 
	C154.623367,248.141968 150.283310,237.611053 146.264114,226.968018 
	C145.986084,226.231796 145.855408,225.181458 146.170242,224.522949 
	C147.846542,221.016891 146.093170,218.522522 144.020294,215.979996 
	C142.142975,213.677322 140.567139,211.121338 138.619492,208.885101 
	C134.854034,204.561752 131.533524,200.151443 132.952942,193.902191 
z"/>
<path fill="#A8A2F7" opacity="1.000000" stroke="none" 
	d="
M168.089539,91.385208 
	C171.074295,94.240761 174.806839,96.965775 171.659393,102.382759 
	C170.062424,105.131256 176.719299,110.729439 181.503403,110.519585 
	C181.806183,112.866882 181.738403,115.388756 182.502563,117.626556 
	C184.056091,122.176003 186.166397,126.593987 190.879181,128.718719 
	C194.056610,130.151245 194.828674,132.608841 195.537613,135.696854 
	C196.263077,138.856796 198.185913,141.722122 199.180878,144.845047 
	C200.352066,148.521027 201.084351,152.336487 202.018402,156.088623 
	C202.218552,156.892609 202.214447,157.960144 202.734619,158.438019 
	C206.770981,162.146194 206.726395,166.609619 205.520447,171.427200 
	C205.376526,172.002090 205.966171,173.045486 206.522552,173.460281 
	C208.651840,175.047791 210.906418,176.467285 213.537567,178.357727 
	C213.500671,180.125671 213.046021,181.487350 212.579315,182.844864 
	C208.665268,194.229828 204.748993,205.614044 200.485199,216.919250 
	C196.366058,212.036743 194.149963,206.970535 197.821777,201.279984 
	C196.388290,200.060150 195.320389,199.151413 194.225647,198.219833 
	C195.157684,196.772568 195.907822,195.607727 196.353760,194.915283 
	C193.494019,190.838318 190.141388,187.515152 188.570709,183.495682 
	C185.864960,176.571472 185.092697,168.822372 181.932449,162.168198 
	C179.612411,157.283157 181.199173,149.879272 173.905716,147.671371 
	C173.443604,147.531479 173.220291,146.598389 172.888641,146.032700 
	C170.181854,141.415604 166.888168,137.029968 164.947021,132.110672 
	C163.258514,127.831604 157.740860,125.484833 158.956924,119.898315 
	C159.634048,117.207924 160.144836,114.462006 161.020828,111.838013 
	C163.263885,105.118965 165.669434,98.454155 168.089539,91.385208 
z"/>
<path fill="#8682E6" opacity="1.000000" stroke="none" 
	d="
M132.612396,194.069885 
	C131.533524,200.151443 134.854034,204.561752 138.619492,208.885101 
	C140.567139,211.121338 142.142975,213.677322 144.020294,215.979996 
	C146.093170,218.522522 147.846542,221.016891 146.170242,224.522949 
	C145.855408,225.181458 145.986084,226.231796 146.264114,226.968018 
	C150.283310,237.611053 154.623367,248.141968 158.310852,258.897125 
	C159.990555,263.796295 160.427841,269.124390 161.383209,274.266357 
	C161.560516,275.220642 161.235321,276.350922 161.624924,277.170441 
	C165.870209,286.099731 165.756790,295.965393 167.400558,305.396759 
	C168.868423,313.819000 168.534668,322.555267 168.698975,331.608521 
	C167.932480,332.399780 167.462921,332.735504 166.993347,333.071259 
	C162.244507,335.849121 160.097000,340.549866 157.530228,345.616882 
	C155.481018,344.347107 152.614151,342.821350 152.490524,341.098694 
	C151.922897,333.188995 152.101334,325.224396 152.064407,317.279236 
	C152.057541,315.804016 152.570816,314.288300 152.369385,312.858124 
	C150.973221,302.945160 149.626053,293.018463 147.853424,283.169891 
	C147.381470,280.547821 144.466339,278.198181 144.428299,275.696747 
	C144.314560,268.214233 141.473557,261.674469 139.379150,254.715393 
	C135.695419,242.475540 128.113968,231.937378 125.140167,219.505142 
	C125.002647,218.930206 124.330780,218.483078 123.907776,217.976425 
	C126.695801,210.063477 129.483826,202.150528 132.612396,194.069885 
z"/>
<path fill="#6F6FDB" opacity="1.000000" stroke="none" 
	d="
M114.000694,428.992676 
	C107.340271,429.054535 100.721733,428.861298 95.171959,426.801178 
	C96.437836,423.740845 97.088387,421.124908 98.529839,419.061432 
	C99.443214,417.753906 101.488045,417.166351 103.106163,416.434387 
	C108.606323,413.946442 109.063957,411.628510 105.322197,406.894867 
	C104.777199,406.205414 105.268532,403.888489 106.056351,403.113312 
	C108.011223,401.189850 109.520950,399.578827 107.619667,396.735840 
	C107.198631,396.106232 107.690369,394.888458 107.705345,393.940613 
	C107.739510,391.777893 107.789696,389.613312 107.732903,387.452148 
	C107.699028,386.162781 106.925888,384.582428 107.432114,383.643463 
	C109.547356,379.720184 108.263382,376.677032 105.067841,373.761414 
	C111.007088,368.024323 105.454582,362.861786 104.590370,357.457703 
	C103.716774,351.994965 102.370377,346.600098 101.671440,341.119324 
	C100.996056,335.823303 98.257530,334.550537 92.349464,337.821838 
	C91.473190,335.632935 90.624306,333.512421 89.708832,331.225616 
	C87.482948,332.236816 85.584816,333.099121 83.320251,333.965393 
	C86.624649,323.062927 90.296806,312.156952 93.965218,301.249695 
	C94.739609,298.947205 95.500244,296.640045 96.835480,294.401184 
	C99.282463,296.486542 101.161171,298.505798 103.504623,301.024567 
	C101.280914,301.583496 98.992973,302.158569 96.705032,302.733612 
	C102.947945,304.220734 107.520798,307.138489 107.881859,313.778839 
	C108.086601,317.544373 109.722321,319.311981 112.850578,320.966888 
	C114.923218,322.063324 117.143295,324.269836 117.745781,326.415161 
	C118.551247,329.283234 118.927864,333.167786 117.598618,335.569977 
	C113.739334,342.544495 118.874710,348.431976 118.833824,354.816101 
	C118.812462,358.149872 119.058861,362.324493 117.272362,364.651367 
	C111.793060,371.788086 113.554443,379.553925 115.807106,386.319153 
	C117.817650,392.357269 118.663223,398.249756 118.284912,404.174377 
	C117.893700,410.301147 115.809044,416.319794 114.421577,422.582397 
	C115.001114,422.915314 116.363113,423.697723 117.725113,424.480133 
	C116.602211,425.675018 115.465050,426.857086 114.369057,428.076141 
	C114.162277,428.306152 114.119270,428.683380 114.000694,428.992676 
z"/>
<path fill="#7271DD" opacity="1.000000" stroke="none" 
	d="
M114.461945,428.995178 
	C114.119270,428.683380 114.162277,428.306152 114.369057,428.076141 
	C115.465050,426.857086 116.602211,425.675018 117.725113,424.480133 
	C116.363113,423.697723 115.001114,422.915314 114.421577,422.582397 
	C115.809044,416.319794 117.893700,410.301147 118.284912,404.174377 
	C118.663223,398.249756 117.817650,392.357269 115.807106,386.319153 
	C113.554443,379.553925 111.793060,371.788086 117.272362,364.651367 
	C119.058861,362.324493 118.812462,358.149872 118.833824,354.816101 
	C118.874710,348.431976 113.739334,342.544495 117.598618,335.569977 
	C118.927864,333.167786 118.551247,329.283234 117.745781,326.415161 
	C117.143295,324.269836 114.923218,322.063324 112.850578,320.966888 
	C109.722321,319.311981 108.086601,317.544373 107.881859,313.778839 
	C107.520798,307.138489 102.947945,304.220734 96.705032,302.733612 
	C98.992973,302.158569 101.280914,301.583496 103.504623,301.024567 
	C101.161171,298.505798 99.282463,296.486542 97.155502,294.208923 
	C99.288040,286.893066 101.668839,279.835602 104.456429,272.520630 
	C108.080002,278.251343 111.519630,284.134155 114.422714,290.270721 
	C115.951546,293.502411 116.813416,297.125458 117.494164,300.664551 
	C118.495773,305.871704 123.817749,309.182220 123.503265,314.890717 
	C123.497704,314.991760 123.722824,315.143341 123.868423,315.209259 
	C127.354103,316.788269 126.956131,319.335541 125.834625,322.274994 
	C125.394768,323.427856 125.459610,324.849884 125.572548,326.124695 
	C126.340004,334.787109 127.260925,343.436676 127.942520,352.105347 
	C128.108398,354.215057 127.503868,356.376465 127.366936,358.521332 
	C127.219254,360.834717 126.472313,363.445404 127.253738,365.426666 
	C131.512939,376.225403 126.963547,387.039703 127.582779,397.850159 
	C127.982750,404.832825 126.199486,411.940521 125.346100,419.417206 
	C126.579094,418.762146 127.290810,418.384033 128.002533,418.005920 
	C127.251556,421.172455 126.686852,424.403870 125.622147,427.461121 
	C125.346779,428.251923 123.532822,428.821228 122.374725,428.925201 
	C119.908562,429.146515 117.409035,428.995911 114.461945,428.995178 
z"/>
<path fill="#7B78E0" opacity="1.000000" stroke="none" 
	d="
M108.204475,261.006866 
	C110.582993,254.103409 112.961517,247.199966 115.885880,239.936127 
	C116.642677,239.072418 116.853630,238.569122 117.330093,238.286560 
	C121.547195,243.592957 125.986137,248.505432 124.251602,254.072861 
	C126.935722,257.817932 129.143112,260.481415 130.874146,263.425079 
	C132.769730,266.648560 135.271301,270.049072 135.542831,273.525970 
	C135.761246,276.322693 135.921600,278.387695 137.780136,280.561310 
	C138.705154,281.643158 138.641617,283.611450 138.917084,285.197510 
	C139.297821,287.389526 139.353363,289.662537 139.955017,291.785522 
	C140.716599,294.472931 142.461868,296.976440 142.781693,299.677795 
	C144.195816,311.621765 144.936188,323.651611 146.577332,335.559875 
	C147.321274,340.957977 145.368637,346.826538 149.450974,351.885162 
	C150.420654,353.086792 149.263107,356.263153 148.644699,358.404297 
	C148.173859,360.034546 147.007782,361.464050 145.878784,363.465424 
	C147.753632,363.699005 148.866379,363.837646 149.993469,363.989868 
	C150.007812,364.003418 150.038177,364.027985 150.129440,364.213867 
	C150.375366,364.634674 150.572266,364.826233 150.811417,364.974365 
	C147.395340,374.596252 144.019028,384.232727 140.503983,393.818329 
	C140.137360,394.818115 138.949066,395.516602 137.659760,396.561798 
	C137.410416,394.539551 137.822784,392.312225 137.845566,390.080933 
	C137.953049,379.550476 138.047485,369.017822 137.924957,358.488556 
	C137.895416,355.949768 136.628708,353.423584 136.610535,350.886780 
	C136.558350,343.597931 137.065826,336.302124 136.912857,329.018341 
	C136.848343,325.947571 135.259018,322.923889 135.083969,319.837891 
	C134.256958,305.258575 129.000305,292.262878 121.641479,279.886322 
	C118.941177,275.344788 116.057060,270.673126 114.663994,265.669067 
	C113.538483,261.626099 111.895081,260.455780 108.204475,261.006866 
M147.469467,366.852173 
	C147.165421,366.909729 146.861374,366.967285 146.557327,367.024902 
	C146.858917,367.094208 147.160507,367.163513 147.469467,366.852173 
z"/>
<path fill="#A29CF4" opacity="1.000000" stroke="none" 
	d="
M158.621948,120.059029 
	C157.740860,125.484833 163.258514,127.831604 164.947021,132.110672 
	C166.888168,137.029968 170.181854,141.415604 172.888641,146.032700 
	C173.220291,146.598389 173.443604,147.531479 173.905716,147.671371 
	C181.199173,149.879272 179.612411,157.283157 181.932449,162.168198 
	C185.092697,168.822372 185.864960,176.571472 188.570709,183.495682 
	C190.141388,187.515152 193.494019,190.838318 196.353760,194.915283 
	C195.907822,195.607727 195.157684,196.772568 194.225647,198.219833 
	C195.320389,199.151413 196.388290,200.060150 197.821777,201.279984 
	C194.149963,206.970535 196.366058,212.036743 200.436707,217.291443 
	C198.433258,224.165939 196.130127,230.589035 193.498062,237.066040 
	C190.481110,238.318924 189.555161,236.658142 189.008942,234.503723 
	C187.307480,227.793060 185.686890,221.061539 183.939346,214.363037 
	C182.610870,209.270767 181.462830,204.095734 179.641708,199.177017 
	C177.531570,193.477646 174.880722,187.967056 172.263977,182.469986 
	C169.871048,177.443039 171.737381,170.467026 165.261841,167.249298 
	C164.594650,166.917770 164.589111,165.416489 164.077515,164.579697 
	C162.555252,162.089752 160.966156,159.638657 159.334503,157.218689 
	C158.708817,156.290710 157.235199,155.453796 157.277496,154.633606 
	C157.563614,149.083984 152.464798,147.427856 149.903580,143.969772 
	C152.698044,136.053101 155.492508,128.136414 158.621948,120.059029 
z"/>
<path fill="#9790EF" opacity="1.000000" stroke="none" 
	d="
M182.978867,331.864502 
	C182.318176,326.299438 181.665009,320.733429 180.995087,315.169495 
	C179.885696,305.955505 178.696136,296.750366 177.692459,287.524963 
	C177.394104,284.782623 177.960892,281.926575 177.517715,279.223206 
	C176.051208,270.277039 174.499756,261.335205 172.609528,252.470856 
	C170.792572,243.950089 168.981384,235.375183 166.284988,227.112106 
	C164.245346,220.861633 160.851089,215.047913 157.993179,209.071625 
	C156.142166,205.200867 153.974396,201.470871 152.303253,197.527496 
	C150.132721,192.405716 147.622208,187.914108 142.813889,184.457321 
	C140.652893,182.903732 140.483444,178.579956 139.151062,175.234268 
	C140.265900,170.891647 141.640015,166.827927 143.428040,162.452637 
	C144.875397,163.373901 146.079971,164.501770 146.911621,165.858292 
	C149.971878,170.850006 151.016724,176.867401 156.099167,180.915604 
	C159.034470,183.253616 160.794296,187.230392 162.675964,190.691025 
	C165.683044,196.221420 164.238297,203.596512 169.783340,208.153214 
	C170.082458,208.399017 169.948364,209.121490 170.115112,209.586517 
	C172.131073,215.208572 174.200943,220.811569 176.182953,226.445496 
	C177.473007,230.112518 178.929825,233.755707 179.800201,237.527664 
	C181.209015,243.632935 182.190048,249.836700 183.392303,255.990936 
	C183.433884,256.203735 183.910919,256.331512 184.188187,256.494415 
	C185.409058,255.997528 186.626724,255.505127 187.904114,255.395721 
	C186.977036,258.642822 186.020859,261.517883 184.996399,264.368439 
	C183.403503,268.800720 181.878616,273.224457 183.887634,278.255737 
	C183.701492,280.024841 183.045273,282.022308 183.741058,282.782806 
	C186.265900,285.542419 186.154099,288.366516 185.179184,291.595795 
	C184.809052,292.821808 184.910126,294.257629 185.068283,295.564941 
	C186.416351,306.708435 187.817535,317.845612 189.235397,328.980469 
	C189.360352,329.961761 189.716782,330.913544 189.530075,331.899231 
	C187.055923,331.901123 185.017395,331.882812 182.978867,331.864502 
z"/>
<path fill="#7574DE" opacity="1.000000" stroke="none" 
	d="
M108.121597,261.383118 
	C111.895081,260.455780 113.538483,261.626099 114.663994,265.669067 
	C116.057060,270.673126 118.941177,275.344788 121.641479,279.886322 
	C129.000305,292.262878 134.256958,305.258575 135.083969,319.837891 
	C135.259018,322.923889 136.848343,325.947571 136.912857,329.018341 
	C137.065826,336.302124 136.558350,343.597931 136.610535,350.886780 
	C136.628708,353.423584 137.895416,355.949768 137.924957,358.488556 
	C138.047485,369.017822 137.953049,379.550476 137.845566,390.080933 
	C137.822784,392.312225 137.410416,394.539551 137.501160,396.882751 
	C135.647110,403.071777 133.469421,409.146759 131.165283,415.851257 
	C131.051636,416.676636 131.064423,416.872498 131.077209,417.068359 
	C131.077209,417.068359 131.049393,417.075012 131.051331,417.092285 
	C130.196976,417.255920 129.340698,417.402283 128.243469,417.777283 
	C127.290810,418.384033 126.579094,418.762146 125.346100,419.417206 
	C126.199486,411.940521 127.982750,404.832825 127.582779,397.850159 
	C126.963547,387.039703 131.512939,376.225403 127.253738,365.426666 
	C126.472313,363.445404 127.219254,360.834717 127.366936,358.521332 
	C127.503868,356.376465 128.108398,354.215057 127.942520,352.105347 
	C127.260925,343.436676 126.340004,334.787109 125.572548,326.124695 
	C125.459610,324.849884 125.394768,323.427856 125.834625,322.274994 
	C126.956131,319.335541 127.354103,316.788269 123.868423,315.209259 
	C123.722824,315.143341 123.497704,314.991760 123.503265,314.890717 
	C123.817749,309.182220 118.495773,305.871704 117.494164,300.664551 
	C116.813416,297.125458 115.951546,293.502411 114.422714,290.270721 
	C111.519630,284.134155 108.080002,278.251343 104.530632,272.135193 
	C105.478264,268.591278 106.758484,265.175323 108.121597,261.383118 
z"/>
<path fill="#9D96F1" opacity="1.000000" stroke="none" 
	d="
M187.844391,255.012726 
	C186.626724,255.505127 185.409058,255.997528 184.188187,256.494415 
	C183.910919,256.331512 183.433884,256.203735 183.392303,255.990936 
	C182.190048,249.836700 181.209015,243.632935 179.800201,237.527664 
	C178.929825,233.755707 177.473007,230.112518 176.182953,226.445496 
	C174.200943,220.811569 172.131073,215.208572 170.115112,209.586517 
	C169.948364,209.121490 170.082458,208.399017 169.783340,208.153214 
	C164.238297,203.596512 165.683044,196.221420 162.675964,190.691025 
	C160.794296,187.230392 159.034470,183.253616 156.099167,180.915604 
	C151.016724,176.867401 149.971878,170.850006 146.911621,165.858292 
	C146.079971,164.501770 144.875397,163.373901 143.509430,162.071991 
	C145.198334,156.109543 147.219788,150.216171 149.572418,144.146286 
	C152.464798,147.427856 157.563614,149.083984 157.277496,154.633606 
	C157.235199,155.453796 158.708817,156.290710 159.334503,157.218689 
	C160.966156,159.638657 162.555252,162.089752 164.077515,164.579697 
	C164.589111,165.416489 164.594650,166.917770 165.261841,167.249298 
	C171.737381,170.467026 169.871048,177.443039 172.263977,182.469986 
	C174.880722,187.967056 177.531570,193.477646 179.641708,199.177017 
	C181.462830,204.095734 182.610870,209.270767 183.939346,214.363037 
	C185.686890,221.061539 187.307480,227.793060 189.008942,234.503723 
	C189.555161,236.658142 190.481110,238.318924 193.566223,237.403259 
	C193.344635,239.324020 192.690887,240.949219 192.114182,242.601318 
	C190.672287,246.731949 189.265366,250.874786 187.844391,255.012726 
z"/>
<path fill="#807DE3" opacity="1.000000" stroke="none" 
	d="
M149.979141,363.976288 
	C148.866379,363.837646 147.753632,363.699005 145.878784,363.465424 
	C147.007782,361.464050 148.173859,360.034546 148.644699,358.404297 
	C149.263107,356.263153 150.420654,353.086792 149.450974,351.885162 
	C145.368637,346.826538 147.321274,340.957977 146.577332,335.559875 
	C144.936188,323.651611 144.195816,311.621765 142.781693,299.677795 
	C142.461868,296.976440 140.716599,294.472931 139.955017,291.785522 
	C139.353363,289.662537 139.297821,287.389526 138.917084,285.197510 
	C138.641617,283.611450 138.705154,281.643158 137.780136,280.561310 
	C135.921600,278.387695 135.761246,276.322693 135.542831,273.525970 
	C135.271301,270.049072 132.769730,266.648560 130.874146,263.425079 
	C129.143112,260.481415 126.935722,257.817932 124.251602,254.072861 
	C125.986137,248.505432 121.547195,243.592957 117.306229,238.262299 
	C117.016861,238.017258 116.968681,237.969177 116.975029,237.702667 
	C116.967499,237.258972 116.953629,237.081787 116.939743,236.904602 
	C119.044884,230.712433 121.150024,224.520279 123.581467,218.152283 
	C124.330780,218.483078 125.002647,218.930206 125.140167,219.505142 
	C128.113968,231.937378 135.695419,242.475540 139.379150,254.715393 
	C141.473557,261.674469 144.314560,268.214233 144.428299,275.696747 
	C144.466339,278.198181 147.381470,280.547821 147.853424,283.169891 
	C149.626053,293.018463 150.973221,302.945160 152.369385,312.858124 
	C152.570816,314.288300 152.057541,315.804016 152.064407,317.279236 
	C152.101334,325.224396 151.922897,333.188995 152.490524,341.098694 
	C152.614151,342.821350 155.481018,344.347107 157.450195,345.981720 
	C156.540009,349.421478 155.264069,352.843109 153.645844,356.696716 
	C153.242752,357.766632 153.181946,358.404602 153.121124,359.042572 
	C153.091461,359.208344 153.061798,359.374146 152.633331,359.859619 
	C151.482742,361.444946 150.730942,362.710632 149.979141,363.976288 
z"/>
<path fill="#BAA7FC" opacity="1.000000" stroke="none" 
	d="
M238.945816,331.926086 
	C258.249817,331.949493 277.553864,331.961945 296.857788,332.014252 
	C298.669678,332.019165 300.480896,332.275299 302.630676,332.646423 
	C269.955902,332.923553 236.942902,332.969025 203.452499,332.712677 
	C202.975098,332.410858 202.947693,331.947449 202.953720,331.934265 
	C202.959747,331.921082 202.970978,331.892639 203.441360,331.918701 
	C209.254211,331.929169 214.596680,331.913574 220.410751,331.919434 
	C226.903503,331.935944 232.924667,331.931000 238.945816,331.926086 
z"/>
<path fill="#BAA7FC" opacity="1.000000" stroke="none" 
	d="
M270.908081,49.490334 
	C248.360626,49.902222 225.600479,49.927826 202.368042,49.918755 
	C202.563736,49.560284 203.231934,48.953285 203.899734,48.953716 
	C226.164993,48.967987 248.430206,49.040260 270.908081,49.490334 
z"/>
<path fill="#BAA7FC" opacity="1.000000" stroke="none" 
	d="
M345.041687,429.449524 
	C347.214722,429.338379 349.312469,429.944824 351.413239,429.955627 
	C368.994720,430.045807 386.576752,430.026581 404.631775,430.067810 
	C404.104797,430.415100 403.105377,431.011017 402.104370,431.013733 
	C384.146851,431.061615 366.189026,431.057526 348.231659,430.980621 
	C347.142151,430.975952 346.055664,430.270447 345.041687,429.449524 
z"/>
<path fill="#B2ACFB" opacity="1.000000" stroke="none" 
	d="
M67.032364,430.370117 
	C86.566269,429.868469 106.287209,429.781097 126.471672,429.640747 
	C126.304901,430.059998 125.674606,430.944489 125.044312,430.944489 
	C105.769341,430.944519 86.494370,430.857697 67.032364,430.370117 
z"/>
<path fill="#B2ACFB" opacity="1.000000" stroke="none" 
	d="
M202.947693,331.947449 
	C202.947693,331.947449 202.975098,332.410858 202.988617,332.642578 
	C191.311279,332.911407 179.620453,332.948547 167.461487,333.028503 
	C167.462921,332.735504 167.932480,332.399780 168.690155,331.995178 
	C173.337173,331.926239 177.696106,331.926178 182.516937,331.895325 
	C185.017395,331.882812 187.055923,331.901123 189.996368,331.929260 
	C194.914749,331.941864 198.931213,331.944641 202.947693,331.947449 
z"/>
<path fill="#7B78E0" opacity="1.000000" stroke="none" 
	d="
M149.993469,363.989868 
	C150.730942,362.710632 151.482742,361.444946 152.548859,360.097748 
	C152.469879,361.257019 152.076584,362.497803 151.120087,363.883240 
	C150.383987,364.027954 150.211075,364.027985 150.038177,364.027985 
	C150.038177,364.027985 150.007812,364.003418 149.993469,363.989868 
z"/>
<path fill="#BAA7FC" opacity="1.000000" stroke="none" 
	d="
M385.912109,324.640869 
	C385.234131,323.567261 384.634705,322.133850 384.053284,320.316040 
	C384.711090,321.381500 385.350891,322.831268 385.912109,324.640869 
z"/>
<path fill="#7B78E0" opacity="1.000000" stroke="none" 
	d="
M153.395340,358.907959 
	C153.181946,358.404602 153.242752,357.766632 153.562500,357.071167 
	C153.770798,357.600220 153.720169,358.186798 153.395340,358.907959 
z"/>
<path fill="#BAA7FC" opacity="1.000000" stroke="none" 
	d="
M303.990601,333.442505 
	C304.721252,333.271973 305.594604,333.427948 306.694031,333.834229 
	C305.991180,333.979340 305.062225,333.874207 303.990601,333.442505 
z"/>
<path fill="#BAA7FC" opacity="1.000000" stroke="none" 
	d="
M386.921112,327.669952 
	C386.589600,327.483337 386.336243,326.979736 386.065796,326.188049 
	C386.365540,326.384277 386.682404,326.868622 386.921112,327.669952 
z"/>
<path fill="#807DE3" opacity="1.000000" stroke="none" 
	d="
M117.040726,238.041534 
	C116.853630,238.569122 116.642677,239.072418 116.208374,239.733871 
	C115.991379,239.466507 115.997719,239.041000 116.288025,238.303925 
	C116.571991,237.992340 116.968681,237.969177 116.968681,237.969177 
	C116.968681,237.969177 117.016861,238.017258 117.040726,238.041534 
z"/>
<path fill="#7B78E0" opacity="1.000000" stroke="none" 
	d="
M116.975029,237.702667 
	C116.968681,237.969177 116.571991,237.992340 116.373482,237.995041 
	C116.272270,237.699142 116.369568,237.400543 116.703308,237.003265 
	C116.953629,237.081787 116.967499,237.258972 116.975029,237.702667 
z"/>
<path fill="#807DE3" opacity="1.000000" stroke="none" 
	d="
M150.129440,364.213867 
	C150.211075,364.027985 150.383987,364.027954 150.816010,364.035126 
	C151.075150,364.042358 150.983826,364.519958 150.897614,364.747162 
	C150.572266,364.826233 150.375366,364.634674 150.129440,364.213867 
z"/>
<path fill="#6C6CD9" opacity="1.000000" stroke="none" 
	d="
M131.320175,416.983521 
	C131.064423,416.872498 131.051636,416.676636 131.045517,416.186523 
	C131.222504,416.227753 131.392822,416.563202 131.320175,416.983521 
z"/>
<path fill="#AFAEFA" opacity="1.000000" stroke="none" 
	d="
M336.293701,185.008240 
	C336.029785,184.900772 336.022400,184.703293 336.024170,184.209534 
	C336.205627,184.248245 336.377930,184.583237 336.293701,185.008240 
z"/>
<path fill="#000000" opacity="1.000000" stroke="none" 
	d="
M187.904114,255.395721 
	C189.265366,250.874786 190.672287,246.731949 192.114182,242.601318 
	C192.690887,240.949219 193.344635,239.324020 193.895142,237.349365 
	C196.130127,230.589035 198.433258,224.165939 200.784882,217.370651 
	C204.748993,205.614044 208.665268,194.229828 212.579315,182.844864 
	C213.046021,181.487350 213.500671,180.125671 213.892029,178.382584 
	C218.463593,164.583282 223.104050,151.167328 227.795929,137.379517 
	C229.714005,127.246140 231.099411,124.676048 237.134308,121.382347 
	C239.112137,125.521332 241.499100,129.458237 242.944412,133.714874 
	C251.545349,159.045883 259.916992,184.454666 268.393921,209.827896 
	C270.277374,215.465500 272.274139,221.065231 274.551727,226.860596 
	C279.044189,239.947754 283.132599,252.880203 287.385956,265.758179 
	C290.714661,275.836456 286.468048,281.965515 275.867767,282.018127 
	C267.207642,282.061127 258.547211,282.038788 248.962952,282.040283 
	C239.344849,282.087006 230.650742,282.138824 221.503601,282.111145 
	C217.012634,282.083160 212.974670,282.134735 208.477875,282.109436 
	C203.857224,282.030029 199.670624,281.742310 195.540146,282.100952 
	C190.928513,282.501312 187.169022,281.246704 184.037903,277.916473 
	C181.878616,273.224457 183.403503,268.800720 184.996399,264.368439 
	C186.020859,261.517883 186.977036,258.642822 187.904114,255.395721 
z"/>
<path fill="#ADA9F9" opacity="1.000000" stroke="none" 
	d="
M225.879852,115.275604 
	C226.117294,115.729141 226.131149,116.111176 226.145020,116.493217 
	C225.744553,116.348511 225.344070,116.203812 224.943604,116.059097 
	C225.181152,115.774101 225.418701,115.489105 225.879852,115.275604 
z"/>
<path fill="#AEA1F8" opacity="1.000000" stroke="none" 
	d="
M221.956619,282.190674 
	C230.650742,282.138824 239.344849,282.087006 248.496719,282.115234 
	C246.779068,283.726257 242.645309,281.974457 242.061462,286.636719 
	C239.391724,294.510223 238.534698,302.164429 239.740753,310.074738 
	C240.230408,313.286255 241.337036,317.041412 237.078094,317.532990 
	C237.714584,322.453339 238.277115,326.801971 238.892731,331.538330 
	C232.924667,331.931000 226.903503,331.935944 220.336639,331.588135 
	C216.715210,328.756592 215.596710,325.638641 215.920685,321.642731 
	C216.265060,317.395355 216.040680,313.097778 215.975647,308.823486 
	C215.953156,307.346893 216.224899,305.199432 215.400970,304.514160 
	C211.324295,301.123444 212.705963,297.324127 213.585266,293.183990 
	C214.179962,290.383881 212.528549,286.543518 213.909302,284.636292 
	C215.218994,282.827271 219.168167,282.929138 221.956619,282.190674 
z"/>
<path fill="#AFAEFA" opacity="1.000000" stroke="none" 
	d="
M286.152435,225.546494 
	C285.452606,229.337738 285.452606,229.337738 281.485046,225.827759 
	C283.458557,225.602631 284.670898,225.464340 286.152435,225.546494 
z"/>
<path fill="#BFA2FD" opacity="1.000000" stroke="none" 
	d="
M350.024109,333.807678 
	C351.087799,333.947845 351.910736,334.310455 352.733673,334.673096 
	C352.128235,335.292633 351.522797,335.912170 350.917389,336.531738 
	C350.539368,335.697876 350.161346,334.864044 350.024109,333.807678 
z"/>
<path fill="#807DE3" opacity="1.000000" stroke="none" 
	d="
M147.465790,367.042511 
	C147.160507,367.163513 146.858917,367.094208 146.557327,367.024872 
	C146.861374,366.967285 147.165421,366.909729 147.465790,367.042511 
z"/>
<path fill="#9D96F1" opacity="1.000000" stroke="none" 
	d="
M183.887634,278.255737 
	C187.169022,281.246704 190.928513,282.501312 195.540146,282.100952 
	C199.670624,281.742310 203.857224,282.030029 208.146591,282.322937 
	C206.631348,282.742371 204.990646,282.933319 203.345383,282.988922 
	C198.547791,283.151031 197.005005,285.120331 197.417419,289.850220 
	C198.047150,297.072540 198.354538,304.322388 198.882721,311.554413 
	C199.079895,314.254211 200.782944,317.872955 199.612549,319.461029 
	C195.154938,325.509583 197.262665,328.995483 202.970978,331.892639 
	C202.970978,331.892639 202.959747,331.921082 202.953720,331.934265 
	C198.931213,331.944641 194.914749,331.941864 190.431976,331.909058 
	C189.716782,330.913544 189.360352,329.961761 189.235397,328.980469 
	C187.817535,317.845612 186.416351,306.708435 185.068283,295.564941 
	C184.910126,294.257629 184.809052,292.821808 185.179184,291.595795 
	C186.154099,288.366516 186.265900,285.542419 183.741058,282.782806 
	C183.045273,282.022308 183.701492,280.024841 183.887634,278.255737 
z"/>
<path fill="#A29CF4" opacity="1.000000" stroke="none" 
	d="
M203.441360,331.918701 
	C197.262665,328.995483 195.154938,325.509583 199.612549,319.461029 
	C200.782944,317.872955 199.079895,314.254211 198.882721,311.554413 
	C198.354538,304.322388 198.047150,297.072540 197.417419,289.850220 
	C197.005005,285.120331 198.547791,283.151031 203.345383,282.988922 
	C204.990646,282.933319 206.631348,282.742371 208.605408,282.399780 
	C212.974670,282.134735 217.012634,282.083160 221.503601,282.111145 
	C219.168167,282.929138 215.218994,282.827271 213.909302,284.636292 
	C212.528549,286.543518 214.179962,290.383881 213.585266,293.183990 
	C212.705963,297.324127 211.324295,301.123444 215.400970,304.514160 
	C216.224899,305.199432 215.953156,307.346893 215.975647,308.823486 
	C216.040680,313.097778 216.265060,317.395355 215.920685,321.642731 
	C215.596710,325.638641 216.715210,328.756592 219.865036,331.566681 
	C214.596680,331.913574 209.254211,331.929169 203.441360,331.918701 
z"/>
</svg>